<svg xmlns="http://www.w3.org/2000/svg" width="193.764" height="57.977" viewBox="0 0 193.764 57.977">
  <g id="Group_800" data-name="Group 800" transform="translate(0 -11.391)">
    <g id="Group_65" data-name="Group 65" transform="translate(42.563 0) rotate(45)">
      <g id="Group_57" data-name="Group 57" transform="translate(0 17.198)">
        <rect id="Rectangle_23" data-name="Rectangle 23" width="2.19" height="42.995" transform="translate(0 0)" fill="#fff"/>
      </g>
      <g id="Group_56" data-name="Group 56" transform="translate(4.465 12.899)">
        <rect id="Rectangle_24" data-name="Rectangle 24" width="2.19" height="42.995" transform="translate(0 0)" fill="#fff"/>
      </g>
      <g id="Group_54" data-name="Group 54" transform="translate(8.929 8.599)">
        <rect id="Rectangle_25" data-name="Rectangle 25" width="2.19" height="42.995" transform="translate(0 0)" fill="#fff"/>
      </g>
      <g id="Group_55" data-name="Group 55" transform="translate(13.394 4.3)">
        <rect id="Rectangle_26" data-name="Rectangle 26" width="2.19" height="42.995" transform="translate(0 0)" fill="#fff"/>
      </g>
      <g id="Group_52" data-name="Group 52" transform="translate(17.859 0)">
        <rect id="Rectangle_27" data-name="Rectangle 27" width="2.19" height="42.995" transform="translate(0)" fill="#fff"/>
      </g>
      <g id="Group_53" data-name="Group 53" transform="translate(22.323 4.3)">
        <rect id="Rectangle_28" data-name="Rectangle 28" width="2.19" height="42.995" transform="translate(0 0)" fill="#fff"/>
      </g>
      <g id="Group_51" data-name="Group 51" transform="translate(26.788 8.599)">
        <rect id="Rectangle_29" data-name="Rectangle 29" width="2.19" height="42.995" transform="translate(0 0)" fill="#fff"/>
      </g>
      <g id="Group_50" data-name="Group 50" transform="translate(31.252 12.899)">
        <rect id="Rectangle_30" data-name="Rectangle 30" width="2.19" height="42.995" transform="translate(0 0)" fill="#fff"/>
      </g>
      <g id="Group_49" data-name="Group 49" transform="translate(35.717 17.198)">
        <rect id="Rectangle_31" data-name="Rectangle 31" width="2.19" height="42.995" transform="translate(0 0)" fill="#fff"/>
      </g>
    </g>
    <text id="ENSIS" transform="translate(69.764 54.391)" fill="#fff" font-size="41" font-family="Poppins-Medium, Poppins" font-weight="500" letter-spacing="0.075em"><tspan x="0" y="0">ENSIS</tspan></text>
  </g>
</svg>
